<?xml version="1.0" encoding="UTF-8"?><svg id="frame" xmlns="http://www.w3.org/2000/svg" viewBox="0 0 582 101.16"><defs><style>.cls-1,.cls-2{fill:#fff;}.cls-2{fill-rule:evenodd;}</style></defs><g id="skylablogo"><g id="katman_1-2"><g id="skylablogo-2"><path class="cls-2" d="M23.62,18.71c.91,2.44,1.82,4.35,2.17,4.56.53.32,8.84,1.83,10.26,1.87,1.02.03,1.47-.19,1.8-.86.22-.45.24-1.02.25-5.85,0-5.06,0-5.38-.26-5.8-.21-.34-1.13-.93-4.19-2.67-2.16-1.23-5.53-3.16-7.49-4.29-4.87-2.81-5.19-2.97-5.96-2.97-.35,0-.77.09-.94.21-.38.26-.64,1.19-.52,1.84.14.79,2.78,8.31,4.88,13.95h0ZM23.58,8.09c.08.03,2.62,1.47,5.65,3.21l5.51,3.16v3.54c0,1.95-.02,3.54-.05,3.54-.14,0-6.87-1.11-6.88-1.14,0-.02-.37-1.05-.81-2.3-.43-1.25-.93-2.67-1.11-3.16s-.76-2.14-1.3-3.67c-.54-1.53-1.01-2.88-1.06-3.01s-.03-.21.05-.18h0Z"/><path class="cls-2" d="M47.79,69.68c.23-.16.46-.33.69-.49v-4.03c-.23.18-.46.35-.69.53v3.99h0Z"/><path class="cls-2" d="M51.89,14.49l-1.6,1.61-.05,26.99-.05,26.99h6.72l-.05-26.99-.05-26.99-1.6-1.61c-.68-.68-1.27-1.27-1.53-1.5h0c-.07-.06-.12-.1-.13-.11h0s-.06.05-.13.11h0c-.26.24-.86.82-1.53,1.5h0Z"/><path class="cls-2" d="M36.94,49.5c0,.06-.02,1.21-.05,2.56s-.02,2.41.03,2.36.34-.98.66-2.07l.57-1.98-.6-.49c-.33-.27-.6-.44-.6-.38h-.01Z"/><path class="cls-2" d="M24.96,54.28c-1.1-.44-9.64-2.82-10.13-2.82-.26,0-.65.11-.86.25-.74.49-13.6,13.41-13.79,13.86-.28.67-.23,1.32.12,1.65.77.73,1.45.75,8.45.24,9.43-.68,12.11-1,12.66-1.5.39-.35,3.93-7.6,4.49-9.19.44-1.24.13-2.06-.94-2.49h0ZM20.59,60.23l-1.4,3.03-.98.09c-2.82.25-12.04.82-12.04.74,0-.05,2.05-2.11,4.57-4.57s4.6-4.48,4.64-4.48c.25-.03,6.5,1.89,6.55,2.01.03.08-.57,1.52-1.34,3.18h0Z"/><path class="cls-2" d="M45.87,70.01v-25.34c0-13.94-.02-25.34-.03-25.34s-1.47,1.44-3.23,3.19l-3.19,3.19v44.29h6.45,0Z"/><path class="cls-2" d="M13.32,35.3c1.39,1.12,3.09,2.47,3.77,2.99s3.65,2.84,6.59,5.14,5.4,4.19,5.44,4.19.6-.56,1.22-1.24c1.06-1.17,1.12-1.25.87-1.43-.82-.57-14.49-11.37-14.45-11.41.06-.06,6.04-.27,13.29-.47,2.83-.08,5.66-.18,6.28-.22l1.13-.08v-3.41l-2.09.02c-1.15.01-3.7.07-5.67.13-7.78.23-15.21.58-17.35.81-2.02.22-2.62.95-1.92,2.3.26.52.83,1.05,2.87,2.68h.02Z"/><path class="cls-2" d="M38.93,71.47l-2.06,1.34c-.06.35-.11.66-.23,1-.32.91-2.64,2.99-3.46,3.8-.77.76-1.64,1.61-2.39,2.39-.66.69-2.07,1.87-3.01,1.23-.22-.15-.38-.3-.54-.51-.31-.41-.68-1.85-.67-1.91.02-.15-.98,2.7.12,3.52.23.17.52.25.61.27.52.11,1.02-.05,1.58-.26,1.33-.52,2.84-1.72,4.05-2.51,2.59-1.71,5.14-3.51,7.71-5.28,1.17-.81,2.53-1.68,3.69-2.47.11-.07.26-.23.32-.42h-5.31s-.29-.15-.41-.17h0v-.02Z"/><path class="cls-2" d="M28.56,50.73v29.23l3.23-3.23,3.23-3.23v-14.46c0-7.95-.05-14.45-.1-14.45s-1.51,1.38-3.23,3.07l-3.12,3.06h-.01Z"/><path class="cls-2" d="M46.49,17.56c.83.3,1.19,1.12,1.28,2.91l.07,1.38.33-.81c.07-.2.14-.39.2-.59.03-.62.07-1.58.09-2.76.03-1.87-.04-2.39.24-3.09.27-.67.81-1.23,1.87-2.35l1.57-1.63.66-1.9c.24-.69.48-1.27.62-1.57h0c.06-.12.11-.2.13-.21.03.01.07.09.13.21h0c.15.3.38.88.62,1.57l.66,1.9,1.57,1.63c1.07,1.11,1.61,1.67,1.87,2.35.28.71.2,1.22.24,3.09.02,1.18.06,2.14.09,2.76.07.2.14.39.2.59l.33.81.07-1.38c.09-1.78.45-2.61,1.28-2.91.3-.11.56-.21.58-.22.04-.03-2.67-7.62-3.78-10.57-2.07-5.51-2.35-6.08-3.21-6.54-.26-.14-.4-.21-.53-.23h-.27c-.13.02-.27.09-.53.23-.86.46-1.14,1.03-3.21,6.54-1.11,2.95-3.82,10.55-3.78,10.57.02.01.28.11.58.22h.03Z"/><path class="cls-2" d="M69.25,24.29c.33.66.78.88,1.8.86,1.43-.04,9.73-1.55,10.26-1.87.36-.22,1.27-2.12,2.17-4.56,2.1-5.64,4.73-13.17,4.88-13.95.12-.65-.14-1.57-.52-1.84-.17-.12-.59-.21-.94-.21-.77,0-1.09.16-5.96,2.97-1.96,1.13-5.33,3.06-7.49,4.29-3.05,1.74-3.98,2.33-4.19,2.67-.25.42-.27.73-.26,5.8,0,4.83.03,5.4.25,5.85h0ZM72.37,17.99v-3.54l5.51-3.16c3.03-1.74,5.57-3.18,5.65-3.21s.1.05.05.18c-.05.13-.53,1.48-1.06,3.01-.54,1.53-1.12,3.18-1.3,3.67s-.68,1.91-1.11,3.16-.79,2.28-.81,2.3c-.02.03-6.74,1.14-6.88,1.14-.03,0-.05-1.59-.05-3.54h0Z"/><path class="cls-2" d="M58.63,67.23v1.96c.23.16.46.33.69.49v-3.99c-.23-.18-.46-.35-.69-.53v2.07h0Z"/><path class="cls-2" d="M70.19,54.42s.06-1.01.03-2.36c-.03-1.35-.06-2.5-.05-2.56,0-.06-.27.11-.6.38l-.6.49.57,1.98c.31,1.09.61,2.02.66,2.07h-.01Z"/><path class="cls-2" d="M106.92,65.57c-.18-.44-13.05-13.37-13.79-13.86-.21-.14-.6-.25-.86-.25-.49,0-9.03,2.38-10.13,2.82-1.07.43-1.38,1.25-.94,2.49.56,1.6,4.1,8.84,4.49,9.19.55.5,3.23.82,12.66,1.5,7,.51,7.67.49,8.45-.24.36-.34.41-.98.12-1.65h0ZM88.89,63.35l-.98-.09-1.4-3.03c-.77-1.67-1.37-3.1-1.34-3.18.05-.12,6.29-2.04,6.55-2.01.04,0,2.12,2.02,4.64,4.48s4.57,4.51,4.57,4.57c0,.08-9.21-.49-12.04-.74h0Z"/><path class="cls-2" d="M67.7,70.01V25.72l-3.19-3.19c-1.76-1.76-3.21-3.19-3.23-3.19s-.03,11.4-.03,25.34v25.34h6.45Z"/><path class="cls-2" d="M71.71,29.38l-2.09-.02v3.41l1.13.08c.62.04,3.45.14,6.28.22,7.26.2,13.24.41,13.29.47.04.04-13.63,10.84-14.45,11.41-.24.17-.19.26.87,1.43.62.68,1.17,1.24,1.22,1.24s2.5-1.89,5.44-4.19,5.91-4.62,6.59-5.14c.68-.52,2.38-1.87,3.77-2.99,2.03-1.63,2.6-2.17,2.87-2.68.7-1.35.09-2.08-1.92-2.3-2.14-.24-9.57-.59-17.35-.81-1.96-.06-4.51-.12-5.67-.13h.02Z"/><path class="cls-2" d="M80.53,78.8c0,.06-.36,1.5-.67,1.91-.16.21-.32.36-.54.51-.94.64-2.35-.54-3.01-1.23-.75-.78-1.62-1.63-2.39-2.39-.82-.81-3.14-2.89-3.46-3.8-.12-.35-.16-.65-.23-1l-2.06-1.34c-.12.02-.37.17-.41.17h-5.31c.06.19.21.35.32.42,1.16.79,2.51,1.66,3.69,2.47,2.58,1.77,5.12,3.57,7.71,5.28,1.21.8,2.73,2,4.05,2.51.56.22,1.07.38,1.58.26.08-.02.38-.09.61-.27,1.09-.82.1-3.67.12-3.52h0v.02Z"/><path class="cls-2" d="M72.19,44.61c-.06,0-.1,6.5-.1,14.45v14.46l3.23,3.23,3.23,3.23v-29.23l-3.12-3.06c-1.72-1.68-3.17-3.06-3.23-3.07h-.01Z"/><path class="cls-2" d="M54.86,73.31c-.42-.41-.86-.59-1.31-.56h0c-.45-.03-.88.15-1.3.56-.85.82-6.51,7.65-6.7,8.1-.11.24-.16.64-.12.89.14.88,6.7,17.89,7.02,18.24.35.37.75.58,1.11.62h0c.36-.04.76-.25,1.11-.62.33-.35,6.88-17.36,7.02-18.24.04-.24,0-.64-.12-.89-.2-.44-5.86-7.28-6.7-8.1h-.01ZM55.88,88.42c-1.22,3.3-2.26,6.01-2.3,6.03,0,0,0-.01-.02-.03h0s-.02.04-.02.03c-.05-.02-1.08-2.73-2.3-6.03-1.22-3.3-2.21-6.02-2.2-6.06.08-.24,4.37-5.17,4.51-5.16,0,0,0,0,.02.01h.02c.13-.01,4.43,4.9,4.51,5.15,0,.04-.98,2.76-2.2,6.06h-.02Z"/></g></g><path class="cls-1" d="M136.48,45.13c-2.04,0-3.98-.25-5.84-.75s-3.36-1.14-4.51-1.91l2.28-5.16c1.1.7,2.37,1.28,3.81,1.74,1.44.46,2.87.68,4.3.68.98,0,1.76-.08,2.33-.25.57-.16.99-.4,1.26-.7.27-.3.4-.67.4-1.09,0-.54-.26-.97-.77-1.28s-1.19-.58-2.02-.81c-.83-.22-1.73-.43-2.7-.63s-1.96-.46-2.97-.79-1.92-.76-2.74-1.3-1.48-1.24-1.98-2.11-.75-1.95-.75-3.26c0-1.45.4-2.77,1.19-3.97.8-1.19,2-2.15,3.62-2.88,1.61-.73,3.63-1.09,6.04-1.09,1.61,0,3.2.18,4.76.54s2.93.91,4.12,1.63l-2.11,5.12c-1.17-.65-2.33-1.13-3.48-1.44-1.15-.3-2.26-.46-3.33-.46-.96,0-1.73.11-2.32.32s-1.01.48-1.26.81c-.26.33-.39.68-.39,1.05,0,.56.26,1,.77,1.32s1.18.57,2,.77,1.73.4,2.72.61c.99.21,1.98.47,2.97.79s1.89.74,2.72,1.26c.83.53,1.5,1.22,2.02,2.07.51.85.77,1.92.77,3.21,0,1.43-.4,2.74-1.21,3.95-.81,1.21-2.02,2.17-3.63,2.9s-3.64,1.09-6.07,1.09v.02Z"/><path class="cls-1" d="M150.1,44.64v-24.57h6.84v24.57h-6.84ZM156.28,39.2l-.39-7.79,10.57-11.34h7.62l-10.46,11.41-3.9,4.04-3.44,3.69h0ZM166.56,44.64l-8-10.14,4.53-4.84,11.55,14.99h-8.08Z"/><path class="cls-1" d="M180.32,44.64v-10.39l1.61,4.18-11.02-18.36h7.37l7.9,13.3h-4.21l7.97-13.3h6.74l-10.92,18.36,1.51-4.18v10.39h-6.95,0Z"/><path class="cls-1" d="M207.7,44.64v-24.57h6.95v19.06h11.69v5.51h-18.64Z"/><path class="cls-1" d="M225.88,44.64l10.85-24.57h6.84l10.88,24.57h-7.23l-8.49-21.17h2.74l-8.49,21.17h-7.1ZM231.81,39.83l1.79-5.09h12l1.79,5.09h-15.58,0Z"/><path class="cls-1" d="M255.96,44.64v-24.57h12.5c3.25,0,5.67.6,7.27,1.79s2.39,2.74,2.39,4.63c0,1.26-.33,2.38-.98,3.33-.66.96-1.59,1.71-2.81,2.25-1.22.54-2.64.81-4.28.81l.67-1.68c1.71,0,3.21.26,4.51.79,1.3.53,2.3,1.29,3.02,2.3.71,1.01,1.07,2.21,1.07,3.62,0,2.11-.86,3.76-2.58,4.95-1.72,1.19-4.24,1.79-7.56,1.79h-13.22ZM262.8,39.62h5.83c1.22,0,2.13-.2,2.74-.61s.91-1.04.91-1.88-.3-1.47-.91-1.88c-.61-.41-1.52-.61-2.74-.61h-6.32v-4.81h5.27c1.17,0,2.05-.2,2.63-.6.58-.4.88-.98.88-1.75,0-.82-.29-1.42-.88-1.81s-1.46-.58-2.63-.58h-4.77v14.53h0Z"/><path class="cls-1" d="M129.81,81.47v-24.57h11.02c2.83,0,5.01.57,6.53,1.7,1.52,1.14,2.28,2.69,2.28,4.65,0,1.33-.3,2.46-.9,3.37s-1.4,1.61-2.4,2.11c-1.01.49-2.09.74-3.26.74l.63-1.05c1.4,0,2.64.25,3.72.74s1.93,1.21,2.56,2.16.95,2.12.95,3.53c0,2.11-.79,3.74-2.37,4.9s-3.93,1.74-7.04,1.74h-11.72v-.02ZM133.32,78.63h8.07c1.94,0,3.43-.33,4.46-.98,1.03-.65,1.54-1.68,1.54-3.09s-.52-2.47-1.54-3.12c-1.03-.65-2.52-.98-4.46-.98h-8.39v-2.84h7.51c1.78,0,3.16-.33,4.14-.98s1.47-1.64,1.47-2.95-.49-2.29-1.47-2.95-2.36-.98-4.14-.98h-7.2v18.88h0Z"/><path class="cls-1" d="M157.19,59.53c-.58,0-1.08-.2-1.47-.6-.4-.4-.6-.89-.6-1.47s.2-1.08.6-1.47.89-.6,1.47-.6,1.08.2,1.47.6c.4.4.6.89.6,1.47s-.2,1.08-.6,1.47c-.4.4-.89.6-1.47.6ZM155.5,81.47v-18.6h3.37v18.6h-3.37Z"/><path class="cls-1" d="M164.91,81.47v-26.04h3.37v26.04h-3.37Z"/><path class="cls-1" d="M182.04,80.7c-1.8,0-3.41-.38-4.83-1.14s-2.54-1.82-3.37-3.18-1.25-2.93-1.25-4.7.42-3.38,1.25-4.72c.83-1.35,1.95-2.39,3.37-3.14s3.02-1.12,4.83-1.12c1.59,0,3.04.32,4.35.97,1.31.64,2.36,1.63,3.14,2.97.78,1.33,1.18,3.02,1.18,5.05s-.39,3.69-1.18,5.02c-.78,1.33-1.83,2.33-3.14,3s-2.76,1-4.35,1h0ZM182.46,88.49c-1.71,0-3.36-.24-4.97-.72-1.6-.48-2.91-1.16-3.91-2.05l1.61-2.6c.87.75,1.93,1.34,3.19,1.77,1.26.43,2.59.65,3.97.65,2.2,0,3.81-.52,4.84-1.54,1.03-1.03,1.54-2.6,1.54-4.7v-3.93l.35-3.69-.18-3.72v-5.09h3.19v16.08c0,3.28-.82,5.69-2.46,7.23s-4.04,2.32-7.2,2.32h.03ZM182.42,77.75c1.24,0,2.34-.26,3.3-.77s1.71-1.23,2.26-2.14c.55-.91.82-1.97.82-3.16s-.28-2.25-.82-3.16c-.55-.91-1.3-1.62-2.26-2.12-.96-.5-2.06-.75-3.3-.75s-2.35.25-3.32.75-1.73,1.21-2.28,2.12-.82,1.97-.82,3.16.27,2.25.82,3.16,1.31,1.63,2.28,2.14,2.08.77,3.32.77Z"/><path class="cls-1" d="M199.83,59.53c-.58,0-1.08-.2-1.47-.6-.4-.4-.6-.89-.6-1.47s.2-1.08.6-1.47.89-.6,1.47-.6,1.08.2,1.47.6c.4.4.6.89.6,1.47s-.2,1.08-.6,1.47c-.4.4-.89.6-1.47.6ZM198.15,81.47v-18.6h3.37v18.6h-3.37Z"/><path class="cls-1" d="M212.89,81.68c-1.54,0-3.01-.21-4.4-.63s-2.49-.94-3.28-1.54l1.4-2.67c.79.54,1.78,1,2.95,1.37s2.36.56,3.58.56c1.57,0,2.7-.22,3.39-.67.69-.44,1.04-1.06,1.04-1.86,0-.58-.21-1.04-.63-1.37s-.98-.57-1.67-.74c-.69-.16-1.46-.31-2.3-.44-.84-.13-1.69-.29-2.53-.49s-1.61-.48-2.32-.84c-.7-.36-1.26-.87-1.69-1.51-.42-.64-.63-1.5-.63-2.58s.32-2.11.95-2.95c.63-.84,1.53-1.49,2.69-1.95s2.53-.68,4.12-.68c1.22,0,2.45.15,3.7.44,1.25.29,2.28.71,3.07,1.25l-1.44,2.67c-.84-.56-1.72-.95-2.63-1.16-.91-.21-1.83-.32-2.74-.32-1.47,0-2.57.24-3.3.72s-1.09,1.09-1.09,1.84c0,.63.22,1.12.65,1.46s.99.6,1.69.79c.69.19,1.46.35,2.3.47.84.13,1.69.29,2.53.49s1.61.47,2.3.82,1.25.84,1.68,1.47c.43.63.65,1.47.65,2.53,0,1.12-.33,2.09-.98,2.91-.66.82-1.58,1.46-2.77,1.91-1.19.46-2.62.68-4.28.68v.02Z"/><path class="cls-1" d="M230.2,81.68c-1.38,0-2.59-.23-3.63-.7-1.04-.47-1.84-1.12-2.4-1.95-.56-.83-.84-1.77-.84-2.83s.24-1.92.72-2.74,1.26-1.47,2.35-1.97c1.09-.49,2.56-.74,4.41-.74h5.9v2.42h-5.76c-1.68,0-2.82.28-3.4.84-.59.56-.88,1.24-.88,2.04,0,.91.36,1.64,1.09,2.19s1.73.83,3.02.83,2.37-.28,3.32-.84c.95-.56,1.63-1.38,2.05-2.46l.67,2.32c-.44,1.1-1.23,1.97-2.35,2.61-1.12.64-2.54.97-4.25.97h-.02ZM236.3,81.47v-3.93l-.18-.74v-6.7c0-1.43-.42-2.53-1.25-3.32-.83-.78-2.08-1.18-3.74-1.18-1.1,0-2.18.18-3.23.54s-1.94.85-2.67,1.46l-1.4-2.53c.96-.77,2.11-1.36,3.46-1.77s2.76-.61,4.23-.61c2.55,0,4.52.62,5.9,1.86,1.38,1.24,2.07,3.14,2.07,5.69v11.23h-3.19Z"/><path class="cls-1" d="M245.57,88.49c-.89,0-1.75-.15-2.6-.44-.84-.29-1.57-.72-2.18-1.28l1.44-2.53c.47.44.98.78,1.54,1.02.56.23,1.16.35,1.79.35.82,0,1.5-.21,2.04-.63s1.04-1.17,1.51-2.25l1.16-2.56.35-.42,7.3-16.88h3.3l-9.02,20.46c-.54,1.31-1.14,2.34-1.81,3.09s-1.4,1.28-2.19,1.6-1.67.47-2.63.47h0ZM249.99,82.07l-8.49-19.2h3.51l7.23,16.57-2.25,2.63h0Z"/><path class="cls-1" d="M268.67,81.68c-1.38,0-2.59-.23-3.63-.7-1.04-.47-1.84-1.12-2.4-1.95-.56-.83-.84-1.77-.84-2.83s.24-1.92.72-2.74,1.26-1.47,2.35-1.97c1.09-.49,2.56-.74,4.41-.74h5.9v2.42h-5.76c-1.68,0-2.82.28-3.4.84-.59.56-.88,1.24-.88,2.04,0,.91.36,1.64,1.09,2.19s1.73.83,3.02.83,2.37-.28,3.32-.84,1.63-1.38,2.05-2.46l.67,2.32c-.44,1.1-1.23,1.97-2.35,2.61s-2.54.97-4.25.97h-.02ZM274.77,81.47v-3.93l-.18-.74v-6.7c0-1.43-.42-2.53-1.25-3.32-.83-.78-2.08-1.18-3.74-1.18-1.1,0-2.18.18-3.23.54-1.05.36-1.94.85-2.67,1.46l-1.4-2.53c.96-.77,2.11-1.36,3.46-1.77s2.76-.61,4.23-.61c2.55,0,4.52.62,5.9,1.86s2.07,3.14,2.07,5.69v11.23s-3.19,0-3.19,0Z"/><path class="cls-1" d="M283.83,81.47v-18.6h3.23v5.05l-.32-1.26c.51-1.29,1.38-2.27,2.6-2.95,1.22-.68,2.71-1.02,4.49-1.02v3.26c-.14-.02-.27-.04-.4-.04h-.37c-1.8,0-3.23.54-4.28,1.61-1.05,1.08-1.58,2.63-1.58,4.67v9.27h-3.37Z"/><path class="cls-1" d="M307.38,81.47v-24.57h11.02c2.83,0,5.01.57,6.53,1.7,1.52,1.14,2.28,2.69,2.28,4.65,0,1.33-.3,2.46-.9,3.37s-1.4,1.61-2.4,2.11c-1.01.49-2.09.74-3.26.74l.63-1.05c1.4,0,2.64.25,3.72.74s1.93,1.21,2.56,2.16.95,2.12.95,3.53c0,2.11-.79,3.74-2.37,4.9s-3.93,1.74-7.04,1.74h-11.72v-.02ZM310.89,78.63h8.07c1.94,0,3.43-.33,4.46-.98s1.54-1.68,1.54-3.09-.51-2.47-1.54-3.12-2.52-.98-4.46-.98h-8.39v-2.84h7.51c1.78,0,3.16-.33,4.14-.98s1.47-1.64,1.47-2.95-.49-2.29-1.47-2.95-2.36-.98-4.14-.98h-7.2v18.88h.01Z"/><path class="cls-1" d="M334.76,59.53c-.58,0-1.08-.2-1.47-.6s-.6-.89-.6-1.47.2-1.08.6-1.47c.4-.4.89-.6,1.47-.6s1.08.2,1.47.6c.4.4.6.89.6,1.47s-.2,1.08-.6,1.47-.89.6-1.47.6ZM333.07,81.47v-18.6h3.37v18.6h-3.37Z"/><path class="cls-1" d="M342.48,81.47v-26.04h3.37v26.04h-3.37Z"/><path class="cls-1" d="M353.57,59.53c-.58,0-1.08-.2-1.47-.6s-.6-.89-.6-1.47.2-1.08.6-1.47c.4-.4.89-.6,1.47-.6s1.08.2,1.47.6c.4.4.6.89.6,1.47s-.2,1.08-.6,1.47-.89.6-1.47.6ZM351.89,81.47v-18.6h3.37v18.6h-3.37Z"/><path class="cls-1" d="M361.29,81.47v-18.6h3.23v4.95l-.53-1.26c.58-1.22,1.49-2.16,2.7-2.84s2.63-1.02,4.25-1.02c1.78,0,3.31.44,4.6,1.32,1.29.88,2.13,2.21,2.53,3.98l-1.37-.56c.56-1.43,1.54-2.57,2.95-3.44,1.4-.87,3.04-1.3,4.91-1.3,1.5,0,2.82.29,3.97.88,1.15.59,2.04,1.47,2.69,2.67s.96,2.7.96,4.53v10.71h-3.37v-10.32c0-1.8-.42-3.16-1.26-4.07s-2.02-1.37-3.54-1.37c-1.12,0-2.11.23-2.95.7-.84.47-1.49,1.16-1.95,2.07s-.68,2.05-.68,3.4v9.58h-3.37v-10.32c0-1.8-.42-3.16-1.25-4.07-.83-.91-2.02-1.37-3.56-1.37-1.1,0-2.07.23-2.91.7-.84.47-1.5,1.16-1.97,2.07s-.7,2.05-.7,3.4v9.58h-3.38Z"/><path class="cls-1" d="M398.01,81.47v-26.04h3.37v26.04h-3.37Z"/><path class="cls-1" d="M415.7,81.68c-1.99,0-3.74-.41-5.25-1.23s-2.68-1.94-3.51-3.37c-.83-1.43-1.25-3.06-1.25-4.91s.4-3.49,1.21-4.91c.81-1.43,1.92-2.54,3.33-3.35,1.42-.81,3.01-1.21,4.79-1.21s3.39.4,4.77,1.19c1.38.8,2.46,1.91,3.25,3.35.78,1.44,1.18,3.12,1.18,5.04,0,.14,0,.3-.02.49-.01.19-.03.36-.05.53h-15.83v-2.42h14.08l-1.37.84c.02-1.19-.22-2.26-.74-3.19-.52-.94-1.22-1.67-2.12-2.19-.9-.53-1.95-.79-3.14-.79s-2.21.26-3.12.79-1.63,1.26-2.14,2.21-.77,2.03-.77,3.25v.56c0,1.24.29,2.35.86,3.32.57.97,1.37,1.73,2.4,2.26,1.03.54,2.21.81,3.54.81,1.1,0,2.1-.19,3-.56.9-.37,1.69-.94,2.37-1.69l1.86,2.18c-.84.98-1.89,1.73-3.14,2.25s-2.65.77-4.19.77v-.02Z"/><path class="cls-1" d="M428.51,81.47v-18.6h3.23v5.05l-.32-1.26c.51-1.29,1.38-2.27,2.6-2.95,1.22-.68,2.71-1.02,4.49-1.02v3.26c-.14-.02-.27-.04-.4-.04h-.37c-1.8,0-3.23.54-4.28,1.61-1.05,1.08-1.58,2.63-1.58,4.67v9.27h-3.37Z"/><path class="cls-1" d="M443.95,59.53c-.58,0-1.08-.2-1.47-.6s-.6-.89-.6-1.47.2-1.08.6-1.47c.4-.4.89-.6,1.47-.6s1.08.2,1.47.6c.4.4.6.89.6,1.47s-.2,1.08-.6,1.47-.89.6-1.47.6ZM442.27,81.47v-18.6h3.37v18.6h-3.37Z"/><path class="cls-1" d="M461.22,81.47v-24.57h3.51v24.57h-3.51ZM464.31,75.54l-.18-4.28,13.94-14.36h4l-10.78,11.37-1.97,2.18-5.02,5.09h0ZM478.63,81.47l-10.07-11.72,2.35-2.6,11.83,14.32h-4.11Z"/><path class="cls-1" d="M492.78,81.68c-1.59,0-2.99-.29-4.19-.88-1.21-.58-2.14-1.48-2.81-2.69-.67-1.21-1-2.72-1-4.55v-10.71h3.37v10.32c0,1.83.44,3.19,1.32,4.11.88.91,2.11,1.37,3.7,1.37,1.17,0,2.19-.24,3.05-.72.87-.48,1.53-1.18,2-2.11.47-.92.7-2.04.7-3.35v-9.62h3.37v18.6h-3.19v-5.02l.53,1.33c-.61,1.24-1.52,2.2-2.74,2.88s-2.59,1.02-4.11,1.02v.02Z"/><path class="cls-1" d="M508.33,81.47v-26.04h3.37v26.04h-3.37Z"/><path class="cls-1" d="M525.56,81.68c-1.59,0-2.99-.29-4.19-.88-1.21-.58-2.14-1.48-2.81-2.69s-1-2.72-1-4.55v-10.71h3.37v10.32c0,1.83.44,3.19,1.32,4.11.88.91,2.11,1.37,3.7,1.37,1.17,0,2.19-.24,3.05-.72.87-.48,1.53-1.18,2-2.11.47-.92.7-2.04.7-3.35v-9.62h3.37v18.6h-3.19v-5.02l.53,1.33c-.61,1.24-1.52,2.2-2.74,2.88s-2.59,1.02-4.11,1.02v.02ZM523.07,59.57c-.49,0-.91-.17-1.26-.51-.35-.34-.53-.77-.53-1.28s.18-.98.53-1.32c.35-.34.77-.51,1.26-.51s.91.17,1.26.51.53.78.53,1.32-.18.94-.53,1.28c-.35.34-.77.51-1.26.51ZM529.6,59.57c-.49,0-.91-.17-1.26-.51-.35-.34-.53-.77-.53-1.28s.18-.98.53-1.32c.35-.34.77-.51,1.26-.51s.91.17,1.26.51c.35.34.53.78.53,1.32s-.18.94-.53,1.28c-.35.34-.77.51-1.26.51Z"/><path class="cls-1" d="M541.11,81.47v-26.04h3.37v12.39l-.35,4.32.21,4.32v5.02h-3.23ZM550.97,81.68c-1.59,0-3.03-.36-4.3-1.07-1.28-.71-2.28-1.77-3.02-3.18-.74-1.4-1.11-3.16-1.11-5.27s.38-3.86,1.14-5.27c.76-1.4,1.78-2.46,3.05-3.16,1.27-.7,2.68-1.05,4.23-1.05,1.83,0,3.44.4,4.84,1.19,1.4.8,2.51,1.9,3.33,3.32s1.23,3.07,1.23,4.97-.41,3.56-1.23,4.98c-.82,1.43-1.93,2.54-3.33,3.33-1.4.8-3.02,1.19-4.84,1.19v.02ZM550.69,78.73c1.19,0,2.26-.27,3.21-.81s1.7-1.3,2.25-2.3c.55-.99.83-2.15.83-3.46s-.28-2.49-.83-3.46-1.3-1.73-2.25-2.26c-.95-.54-2.02-.81-3.21-.81s-2.23.27-3.18.81-1.7,1.29-2.25,2.26-.83,2.12-.83,3.46.28,2.46.83,3.46,1.3,1.76,2.25,2.3,2.01.81,3.18.81Z"/><path class="cls-1" d="M572.49,81.68c-1.59,0-2.99-.29-4.19-.88-1.21-.58-2.14-1.48-2.81-2.69s-1-2.72-1-4.55v-10.71h3.37v10.32c0,1.83.44,3.19,1.32,4.11.88.91,2.11,1.37,3.7,1.37,1.17,0,2.19-.24,3.05-.72.87-.48,1.53-1.18,2-2.11.47-.92.7-2.04.7-3.35v-9.62h3.37v18.6h-3.19v-5.02l.53,1.33c-.61,1.24-1.52,2.2-2.74,2.88s-2.59,1.02-4.11,1.02v.02ZM570,59.57c-.49,0-.91-.17-1.26-.51-.35-.34-.53-.77-.53-1.28s.18-.98.53-1.32c.35-.34.77-.51,1.26-.51s.91.17,1.26.51.53.78.53,1.32-.18.94-.53,1.28c-.35.34-.77.51-1.26.51ZM576.53,59.57c-.49,0-.91-.17-1.26-.51-.35-.34-.53-.77-.53-1.28s.18-.98.53-1.32c.35-.34.77-.51,1.26-.51s.91.17,1.26.51c.35.34.53.78.53,1.32s-.18.94-.53,1.28c-.35.34-.77.51-1.26.51Z"/></g></svg>