<?xml version="1.0" encoding="UTF-8"?><svg id="katman_2" xmlns="http://www.w3.org/2000/svg" xmlns:xlink="http://www.w3.org/1999/xlink" viewBox="0 0 242.22 184.54"><defs><style>.cls-1{fill:url(#Adsız_degrade_9);}.cls-2{fill:url(#Adsız_degrade_13);}.cls-3{fill:url(#Adsız_degrade_26);}.cls-4{fill:url(#Adsız_degrade_49);}.cls-5{fill:url(#Adsız_degrade_16);}.cls-6{fill:url(#Adsız_degrade_22);}</style><linearGradient id="Adsız_degrade_49" x1="26.8" y1="89" x2="214.83" y2="89" gradientUnits="userSpaceOnUse"><stop offset="0" stop-color="#2ebbee"/><stop offset=".53" stop-color="#354c9b"/><stop offset="1" stop-color="#a33f90"/></linearGradient><linearGradient id="Adsız_degrade_9" x1="-4.84" y1="64.67" x2="50.38" y2="119.89" gradientUnits="userSpaceOnUse"><stop offset="0" stop-color="#1ea2dd"/><stop offset=".21" stop-color="#1e92cf"/><stop offset=".61" stop-color="#1f68ab"/><stop offset="1" stop-color="#203c84"/></linearGradient><linearGradient id="Adsız_degrade_13" x1="191.84" y1="119.89" x2="247.06" y2="64.67" gradientUnits="userSpaceOnUse"><stop offset="0" stop-color="#d03a8d"/><stop offset=".27" stop-color="#c0348a"/><stop offset=".8" stop-color="#962583"/><stop offset="1" stop-color="#861f81"/></linearGradient><linearGradient id="Adsız_degrade_22" x1="40.29" y1="152.87" x2="201.93" y2="152.87" gradientUnits="userSpaceOnUse"><stop offset="0" stop-color="#1f4290"/><stop offset=".2" stop-color="#21418f"/><stop offset=".32" stop-color="#293e8e"/><stop offset=".41" stop-color="#373a8c"/><stop offset=".5" stop-color="#4b348a"/><stop offset=".51" stop-color="#50338a"/><stop offset="1" stop-color="#9e328a"/></linearGradient><linearGradient id="Adsız_degrade_26" x1="8.8" y1="165.39" x2="240.58" y2="31.57" gradientUnits="userSpaceOnUse"><stop offset="0" stop-color="#1f4290"/><stop offset=".17" stop-color="#214190"/><stop offset=".27" stop-color="#294090"/><stop offset=".35" stop-color="#2c3e8f"/><stop offset=".42" stop-color="#363b8d"/><stop offset=".49" stop-color="#48358b"/><stop offset=".51" stop-color="#50338a"/><stop offset=".8" stop-color="#30286b"/><stop offset="1" stop-color="#9e328a"/></linearGradient><linearGradient id="Adsız_degrade_16" x1="40.29" y1="31.67" x2="201.93" y2="31.67" gradientUnits="userSpaceOnUse"><stop offset="0" stop-color="#1ea2dd"/><stop offset=".51" stop-color="#29509f"/><stop offset="1" stop-color="#6f2784"/></linearGradient></defs><g id="weblabyeni"><g id="weblablogorenkli"><path class="cls-4" d="M45.78,88.53l-14.82,5.16,14.82,5.08v4.31l-18.97-7.06v-4.7l18.97-7.02v4.23ZM76.86,102.7l-3.14-14.78-3.34,14.78h-5.59l-5.9-20.95h5.63l3.34,14.67,3.18-14.67h5.43l3.14,14.67,3.18-14.67h5.63l-5.94,20.95h-5.63ZM92.03,93.93c.08,1.98.27,2.91.78,3.69.78,1.16,2.02,1.82,3.57,1.82,1.98,0,3.49-.97,4.15-2.64h5.35c-1.2,4.15-5.01,6.79-9.7,6.79-5.94,0-9.58-4.11-9.58-10.83s3.69-11.37,9.7-11.37c4.23,0,7.61,2.29,9,6.09.5,1.47.82,3.42.82,5.51,0,.27,0,.47-.04.93h-14.05ZM100.45,90.32c-.27-3.1-1.75-4.77-4.23-4.77s-3.76,1.55-4.11,4.77h8.34ZM112.32,74.41v10.05c1.32-2.1,3.14-3.07,5.78-3.07s5.12,1.32,6.56,3.38c1.4,2.02,2.25,4.89,2.25,7.72,0,6.33-3.8,11.1-8.81,11.1-2.64,0-4.46-.97-5.78-3.03v2.13h-5.43v-28.29h5.43ZM112.32,92.41c0,4.04,1.82,6.64,4.58,6.64s4.58-2.68,4.58-6.52-1.9-6.6-4.58-6.6-4.58,2.64-4.58,6.48ZM133.43,102.7h-5.43v-28.29h5.43v28.29ZM153.61,102.7h-5.9c-.5-.62-.62-1.01-.62-2.1-1.94,2.02-4.04,2.99-6.36,2.99-3.84,0-6.36-2.52-6.36-6.29s2.02-5.9,6.17-6.6l2.17-.39q2.68-.43,3.42-.82c.58-.35.93-.93.93-1.63,0-1.4-1.05-2.09-3.14-2.09-2.68,0-3.57.7-3.84,2.87h-5.24c.35-4.85,3.3-7.26,8.96-7.26s8.58,2.17,8.58,6.44v11.64c0,1.05.31,1.67,1.24,2.56v.66ZM147.05,92.8c-.62.31-.85.39-2.29.66l-1.86.35c-2.25.47-3.1,1.24-3.1,2.87s1.13,2.52,2.95,2.52c2.75,0,4.31-1.79,4.31-4.93v-1.47ZM159.66,74.41v10.05c1.32-2.1,3.14-3.07,5.78-3.07s5.12,1.32,6.56,3.38c1.4,2.02,2.25,4.89,2.25,7.72,0,6.33-3.8,11.1-8.81,11.1-2.64,0-4.46-.97-5.78-3.03v2.13h-5.43v-28.29h5.43ZM159.66,92.41c0,4.04,1.82,6.64,4.58,6.64s4.58-2.68,4.58-6.52-1.9-6.6-4.58-6.6-4.58,2.64-4.58,6.48ZM194.19,74.99l-7.99,28.25h-2.6l7.99-28.25h2.6ZM195.86,98.86l14.82-5.16-14.82-5.08v-4.31l18.97,7.06v4.69l-18.97,7.02v-4.23Z"/><path class="cls-1" d="M10.58,91.8c4.78.6,7.61,2.08,9.02,5.06.79,1.65,1.14,3.77,1.14,6.46v20.43c-.06,2.74.33,4.57,1.33,5.63.75.81,1.85,1.18,3.39,1.18h3.88v10.37h-8.15c-1.36,0-2.66-.22-3.87-.63-1.8-.6-3.41-1.62-4.75-2.98-.42-.43-.81-.88-1.18-1.37h0s-.05-.06-.06-.09c-.26-.35-.51-.71-.73-1.1-.33-.56-.63-1.16-.9-1.78-.18-.42-.33-.85-.47-1.29s-.26-.89-.36-1.35c-.28-1.28-.42-2.65-.38-4.08v-22c.05-2.98-.42-4.91-1.72-6.08-.07-.08-.15-.14-.23-.2-.42-.33-.92-.59-1.5-.8-.2-.07-.41-.13-.64-.18-.02-.01-.05-.01-.07-.02-.13-.04-.26-.07-.39-.09-.22-.05-.44-.08-.67-.12-.03,0-.05,0-.08-.01-.03,0-.06-.01-.09-.01-.16-.02-.32-.04-.48-.05-.14-.01-.28-.03-.43-.03-.05,0-.1,0-.15,0-.48-.04-.98-.05-1.52-.05-.17,0-.34,0-.52.01v-9.64h1.68c.83,0,1.58-.07,2.25-.21.22-.04.43-.09.63-.16.01.01.02,0,.02,0,.28-.07.54-.17.79-.29.12-.04.24-.1.35-.16.07-.03.14-.07.2-.11.18-.1.35-.21.51-.34.13-.09.25-.19.37-.31.01,0,.02,0,.02-.01.13-.12.26-.25.37-.39.01-.01.02-.02.03-.03.23-.28.44-.6.6-.95.02-.01.03-.03.03-.06.09-.17.16-.35.22-.54.07-.19.13-.38.18-.57.01-.03.01-.06.02-.09.05-.19.08-.38.11-.58.01-.03.01-.06.02-.1.06-.44.09-.9.09-1.4v-22.4c-.05-3.94,1.15-7.44,3.21-10.04.28-.34.56-.66.85-.96.6-.62,1.25-1.17,1.95-1.63.34-.24.7-.45,1.07-.66,1.68-.89,3.58-1.38,5.62-1.38h8.15v10.37h-3.88c-3.25,0-4.82,1.89-4.72,5.97v20.43c0,7.54-2.72,10.58-10.16,11.42Z"/><path class="cls-2" d="M242.22,86.98v9.64c-.18-.01-.35-.01-.52-.01-1.33,0-2.46.08-3.42.28-.13.02-.26.05-.39.09-.03,0-.05.01-.07.01h0c-.23.06-.44.12-.64.19-.58.21-1.08.47-1.5.8-.08.06-.16.12-.23.2-1.3,1.17-1.77,3.1-1.72,6.08v22c.04,1.43-.1,2.8-.38,4.08-.1.46-.22.91-.36,1.35s-.29.87-.47,1.29c-.27.62-.57,1.22-.9,1.78-.22.38-.46.74-.72,1.09-.39.53-.81,1.02-1.25,1.47-2.24,2.27-5.24,3.61-8.62,3.61h-8.15v-10.37h3.88c3.56,0,4.82-1.99,4.72-6.81v-20.43c0-7.54,2.72-10.58,10.16-11.52-4.49-.51-7.26-1.82-8.75-4.44-.98-1.71-1.41-3.99-1.41-6.98v-20.43c.05-2.2-.38-3.76-1.3-4.73-.78-.84-1.92-1.24-3.42-1.24h-3.88v-10.37h8.15c1.37,0,2.68.22,3.9.64.6.2,1.17.45,1.72.74.37.21.73.42,1.07.66.7.46,1.35,1.01,1.95,1.63.29.3.57.62.85.96.12.16.25.32.36.48.01,0,0,0,0,0,1.84,2.54,2.9,5.85,2.85,9.55v22.1c-.08,3.37,1.19,5.45,3.91,6.23.83.25,1.79.37,2.9.37h1.68Z"/><path class="cls-6" d="M82.15,152.33c-2.36.73-4.7,1.4-7,2.02-3.35.9-6.62,1.69-9.83,2.36-1.53.32-3.05.62-4.55.88-1.39.26-2.76.48-4.12.68-6.46-6.29-11.98-13.54-16.36-21.5,2.2-.9,4.39-1.76,6.59-2.59,3.74,6.58,8.3,12.63,13.59,17.97,2.48-.94,6.32-2.27,11.4-3.65-3.18-6.11-5.84-12.86-7.91-20.06,2.24-.66,4.48-1.28,6.72-1.86,2.07,7.22,4.81,14.02,8.19,20.21,5-1.12,10.81-2.17,17.36-2.98-1.46-6.67-2.65-13.96-3.51-21.71,2.31-.34,4.62-.65,6.93-.91.85,7.77,2.05,15.14,3.57,21.9,1.56-.13,3.15-.25,4.78-.35-1.48.64-2.96,1.26-4.43,1.87-2.2.9-4.39,1.77-6.57,2.59-5.04,1.92-10,3.63-14.86,5.12ZM142.57,121.2c-.16,1.45-.32,2.9-.51,4.32,2.04-1.19,4.05-2.4,6.05-3.63-1.85-.26-3.69-.49-5.54-.7ZM201.93,136.77c-15.53,28.18-45.36,47.36-79.72,47.76-.37,0-.73,0-1.1,0s-.72,0-1.07,0c-14.47-.16-28.14-3.66-40.27-9.76,3.27-.86,6.59-1.82,9.95-2.87.16-.05.31-.1.47-.16h.01c2.45-.76,4.91-1.58,7.4-2.45,3.28,2.43,6.7,4.34,10.22,5.71-1.49-2.27-2.91-4.91-4.25-7.88,2.17-.8,4.35-1.65,6.54-2.54,4.06,8.85,8.28,12.96,11,12.96,3.54,0,9.6-6.94,14.56-22.19.31-.94.6-1.9.89-2.87,1.39-.72,2.78-1.45,4.18-2.19,1.43-.76,2.86-1.53,4.29-2.32,2.04-1.12,4.08-2.26,6.11-3.44,4.48.67,8.57,1.45,12.22,2.26,2.32-4.25,4.34-8.8,6.05-13.57h.01c2.55-1.69,5.05-3.42,7.51-5.16.44.13.89.26,1.33.39-2.07,7.2-4.73,13.95-7.91,20.06,5.08,1.38,8.92,2.71,11.4,3.65,5.29-5.35,9.86-11.4,13.59-17.98,2.19.83,4.39,1.68,6.59,2.59ZM159.23,153.61c.11-.16.21-.32.32-.48-4.47-.93-9.56-1.79-15.22-2.45-2.69,10.13-6.07,18.46-9.93,24.32,9.21-3.58,17.75-10.88,24.83-21.39ZM175.96,157.51c-2.41-.81-5.48-1.76-9.17-2.71-3.97,6.39-8.53,11.94-13.56,16.46,8.31-3.39,15.97-8.05,22.73-13.75Z"/><path class="cls-3" d="M187.9,18.89c-2.31-2.1-4.72-4.1-7.22-5.98,7.46-1.28,14.43-1.92,20.8-1.92h.01c17.16,0,29.9,4.66,35.51,14.37,3.57,6.19,3.92,13.86,1.47,22.47-.99-2.06-2.3-3.93-3.9-5.55-.55-.56-1.12-1.07-1.72-1.54.58-4.62-.04-8.64-1.91-11.88-4.05-7.01-14.51-10.87-29.46-10.87-4.28,0-8.82.31-13.58.9ZM158.48,123.62c-3.26,2.11-6.57,4.19-9.96,6.21-1.41.85-2.84,1.68-4.27,2.51-1.17.68-2.35,1.35-3.52,2-5.08,2.85-10.18,5.54-15.27,8.04h-.02c-5.3,2.63-10.57,5.05-15.81,7.28h-.02c-1.43.61-2.84,1.2-4.26,1.77-2.19.9-4.36,1.75-6.53,2.56-4.18,1.58-8.32,3.02-12.4,4.31-2.41.77-4.8,1.49-7.16,2.16-2.31.64-4.58,1.24-6.83,1.78-3.08.76-6.11,1.42-9.07,1.99-3.09.57-6.1,1.05-9.04,1.42-4.76.59-9.3.9-13.58.9-14.95,0-25.41-3.86-29.46-10.87-.69-1.2-1.21-2.52-1.56-3.94-.61-2.37-.72-5.02-.35-7.91-.65-.51-1.28-1.08-1.87-1.68-1.54-1.58-2.81-3.4-3.77-5.39-2.43,8.59-2.08,16.24,1.49,22.42,5.61,9.71,18.35,14.37,35.52,14.37,6.37,0,13.34-.64,20.8-1.92h.01c3.08-.51,6.23-1.14,9.46-1.87,3.14-.71,6.36-1.52,9.63-2.45,1.13-.3,2.27-.63,3.42-.97,2.45-.72,4.93-1.5,7.43-2.33,3.12-1.03,6.28-2.15,9.48-3.35,2.16-.8,4.34-1.65,6.53-2.53,6.41-2.59,12.94-5.49,19.52-8.7,3.95-1.92,7.93-3.96,11.92-6.12.02-.07.04-.14.05-.22.1.02.21.03.31.03,2.57-1.38,5.14-2.81,7.71-4.29.25-.14.49-.28.74-.42,7.07-4.09,13.82-8.34,20.26-12.7-3.18-.77-6.36-1.47-9.53-2.08Z"/><path class="cls-5" d="M46.88,50.35c3.42-6.02,7.54-11.59,12.25-16.59,2.2.88,6.22,2.37,11.89,3.94-2.81,5.66-5.16,11.84-7.04,18.39,2.24.66,4.48,1.28,6.72,1.86.64-2.25,1.34-4.47,2.11-6.63h.01c1.48-4.14,3.2-8.11,5.15-11.87,5.1,1.17,11.09,2.28,17.87,3.12-.21,1.03-.42,2.08-.62,3.14-.56,2.9-1.06,5.9-1.51,9-.37,2.51-.69,5.1-.98,7.72,2.32.34,4.63.65,6.94.91.16-1.45.31-2.9.49-4.31.39-3.02.83-5.97,1.33-8.83.41-2.35.85-4.65,1.33-6.88,3.28.29,6.73.51,10.33.64,2.39.09,4.85.14,7.38.15h.58c2.82,0,5.56-.06,8.21-.16,3.51-.13,6.87-.35,10.08-.63,1.34,6.24,2.39,12.97,3.15,20.02,2.31-.26,4.62-.57,6.93-.91-.78-7.04-1.82-13.71-3.1-19.87,6.79-.84,12.77-1.95,17.87-3.12,2.96,5.72,5.4,11.93,7.27,18.5,2.23-.58,4.47-1.2,6.71-1.85-1.88-6.55-4.23-12.73-7.04-18.39,5.67-1.57,9.69-3.06,11.89-3.94,4.73,5,8.84,10.57,12.25,16.6,2.19-.83,4.39-1.68,6.59-2.59-4.38-7.96-9.9-15.21-16.36-21.5-2.14-2.1-4.38-4.09-6.71-5.96-2.45-1.97-5-3.82-7.65-5.53-2.82-1.83-5.75-3.51-8.77-5.02C150.31,3.66,136.64.17,122.18.01c-.35-.01-.71-.01-1.07-.01s-.73,0-1.1.01C85.65.41,55.82,19.59,40.29,47.77c2.2.9,4.39,1.76,6.59,2.59ZM161.58,17.23c2.84,1.53,5.58,3.23,8.21,5.07,2.47,1.71,4.84,3.56,7.11,5.53.21.18.42.36.63.55-2.39.86-5.66,1.92-9.74,3-.24-.4-.48-.8-.72-1.19-1.31-2.13-2.68-4.17-4.11-6.11-1.53-2.07-3.13-4.04-4.8-5.88-1.59-1.75-3.23-3.39-4.93-4.92,2.87,1.17,5.65,2.49,8.35,3.95ZM144.62,15.25c2.1,1.55,4.14,3.31,6.11,5.28,1.75,1.74,3.44,3.65,5.07,5.71,1.18,1.48,2.32,3.05,3.43,4.69.28.42.57.85.84,1.28.19.29.38.58.56.88-2.44.53-5.07,1.04-7.88,1.5-.01,0-.01,0-.01,0-2.5.41-5.15.79-7.93,1.12-.44-1.78-.91-3.5-1.41-5.17-.67-2.34-1.39-4.56-2.15-6.67-.83-2.3-1.7-4.46-2.61-6.47-1.33-2.97-2.75-5.6-4.24-7.87,3.52,1.37,6.94,3.28,10.22,5.71ZM121.11,7c2.72,0,6.94,4.11,11,12.96.88,1.92,1.76,4.07,2.61,6.45.32.89.64,1.82.95,2.78.41,1.27.81,2.58,1.2,3.91h0c.31,1.1.62,2.2.9,3.33-3.17.26-6.49.46-9.96.57h-.07c-2.15.07-4.36.11-6.63.11h-.56c-5.73-.01-11.1-.26-16.1-.68.38-1.49.79-2.95,1.21-4.37.29-.97.58-1.93.89-2.87,4.96-15.25,11.02-22.19,14.56-22.19ZM107.82,9.54c-4.09,6.22-7.65,15.21-10.41,26.17-5.93-.7-11.22-1.63-15.82-2.61.45-.74.92-1.46,1.4-2.17,7.08-10.51,15.62-17.81,24.83-21.39ZM88.99,13.28c-5.46,4.9-10.36,11.02-14.56,18.1-4.08-1.08-7.34-2.14-9.73-3,7.14-6.32,15.33-11.45,24.29-15.1Z"/></g></g></svg>