<svg width="53.99999999999999" height="38" xmlns="http://www.w3.org/2000/svg" fill="none">
 <defs>
  <clipPath id="clip0_108_313">
   <rect id="svg_1" fill="white" height="38" width="54"/>
  </clipPath>
 </defs>
 <g>
  <title>Layer 1</title>
  <g id="svg_2" clip-path="url(#clip0_108_313)">
   <path id="svg_3" fill="white" d="m8.08419,24.5471c-1.08712,0 -2.1347,-0.2199 -3.12299,-0.6397c-0.98829,-0.4198 -1.85798,-1.0194 -2.58931,-1.7591c-0.73133,-0.7396 -1.32431,-1.6191 -1.73939,-2.6186c-0.41508,-0.9995 -0.6325,-2.0389 -0.6325,-3.1583l0,-8.9553c0,-0.91952 0.17789,-1.79906 0.53368,-2.61863c0.35578,-0.81956 0.83016,-1.53919 1.42313,-2.13887c0.59297,-0.59968 1.30454,-1.07943 2.11493,-1.43924c0.8104,-0.35981 1.66032,-0.53972 2.58931,-0.53972l9.54685,0l0,15.69176c0,1.0994 -0.2174,2.1588 -0.6325,3.1583c-0.4151,0.9995 -1.0081,1.859 -1.7394,2.6186c-0.7313,0.7397 -1.601,1.3393 -2.5893,1.7591c-0.9883,0.4198 -2.03587,0.6397 -3.16251,0.6397zm0,1.3393c1.12664,0 2.17421,0.2199 3.16251,0.6396c0.9883,0.4198 1.8382,0.9995 2.5893,1.7391c0.7313,0.7396 1.3243,1.5992 1.7394,2.5987c0.4151,0.9994 0.6325,2.0589 0.6325,3.1983l0,3.9579l-5.91,0l0,-4.2778c0,-0.6396 -0.2174,-1.1594 -0.65222,-1.5791c-0.43485,-0.3998 -0.96852,-0.6197 -1.56149,-0.6197c-0.59297,0 -1.10688,0.2199 -1.52197,0.6397c-0.41508,0.4197 -0.6325,0.9395 -0.6325,1.5392l0,4.2777l-5.92972,0l0,-3.9579c0,-1.1394 0.21742,-2.1989 0.6325,-3.1783c0.41508,-0.9795 1.00806,-1.8391 1.73939,-2.5787c0.73133,-0.7396 1.60102,-1.3393 2.58931,-1.7591c0.98829,-0.4197 2.01611,-0.6396 3.12299,-0.6396zm-2.17423,-17.35089l0,8.33559c0,0.5997 0.19765,1.1194 0.61273,1.5192c0.41508,0.3998 0.90923,0.6197 1.5022,0.6197l0.0593,0c0.59297,0 1.12664,-0.2199 1.56149,-0.6397c0.43482,-0.4197 0.65222,-0.9395 0.65222,-1.5392l0,-10.53441l-2.21371,0c-0.59297,0 -1.10688,0.21988 -1.52197,0.65965c-0.41508,0.43977 -0.6325,0.97948 -0.6325,1.57917l-0.01976,0z"/>
   <path id="svg_4" fill="white" d="m28.7196,0.69963c0.8697,0 1.7196,0.15992 2.5103,0.49974c0.7906,0.33982 1.4824,0.79958 2.0556,1.37927c0.5732,0.5797 1.0476,1.27933 1.3639,2.05892c0.3162,0.77959 0.4941,1.63914 0.4941,2.55865l0,24.28719c0,0.8996 -0.1581,1.7391 -0.4941,2.5387c-0.3361,0.7996 -0.7907,1.4992 -1.3639,2.0789c-0.5732,0.5797 -1.265,1.0594 -2.0556,1.3793c-0.7907,0.3398 -1.6208,0.4997 -2.5103,0.4997l-9.7642,0l0,-37.28037l9.7642,0zm0.5139,7.09627c0,-0.39979 -0.1581,-0.73961 -0.4546,-1.03946c-0.2965,-0.29984 -0.6522,-0.45975 -1.0278,-0.45975l-2.9056,0l0,26.04631l2.9056,0c0.3953,0 0.7313,-0.14 1.0278,-0.4198c0.2965,-0.2799 0.4546,-0.6397 0.4546,-1.0594l0,-23.0679z"/>
   <path id="svg_5" fill="white" d="m37.7921,8.21568c0,-1.35929 0.2372,-2.53867 0.6918,-3.57812c0.4546,-1.03945 1.0673,-1.899 1.8184,-2.59863c0.7511,-0.69964 1.6208,-1.19937 2.5893,-1.53919c0.9686,-0.33982 1.9371,-0.49974 2.9254,-0.49974c0.9883,0 2.0161,0.17991 3.0044,0.53972c0.9883,0.35981 1.8579,0.87953 2.609,1.59915c0.7511,0.71963 1.3639,1.61915 1.8383,2.69858c0.4743,1.07944 0.7115,2.35876 0.7115,3.81799l0,29.36456l-9.6654,0c-0.9092,0 -1.7592,-0.1599 -2.5498,-0.4998c-0.7906,-0.3398 -1.4824,-0.7995 -2.0754,-1.4192c-0.593,-0.6197 -1.0674,-1.2993 -1.4034,-2.0989c-0.336,-0.7996 -0.4941,-1.6591 -0.4941,-2.5986l0,-9.3951l0.7906,-0.0999l9.7643,-2.2389l0,-10.29454c0,-1.35928 -0.2767,-2.31878 -0.8104,-2.87848c-0.5535,-0.55971 -1.1267,-0.85955 -1.7592,-0.85955c-0.5929,0 -1.1266,0.21989 -1.601,0.63967c-0.4744,0.41977 -0.7116,0.99947 -0.7116,1.6991l0,9.8148l-5.653,1.1194l0,-10.67434l-0.0197,-0.01998zm10.5549,16.87112l-4.9019,1.2194l0,4.1578c0,0.5996 0.1976,1.1194 0.6127,1.5192c0.3953,0.3997 0.9092,0.6196 1.5022,0.6196l2.8068,0l0,-7.536l-0.0198,0.02z"/>
  </g>
 </g>
</svg>